<svg xmlns="http://www.w3.org/2000/svg" viewBox="0 0 338.33 63.7"><defs><style>.cls-1{fill:#232946;}</style></defs><title>logo</title><g id="Layer_2" data-name="Layer 2"><g id="Layer_1-2" data-name="Layer 1"><path class="cls-1" d="M31.85,63.7A31.85,31.85,0,1,0,0,31.85,31.85,31.85,0,0,0,31.85,63.7ZM29.5,12.78h4V30.47H51.17v4H29.5Zm-11.87.87h4V42.08H50.05v4H17.63Z"/><path class="cls-1" d="M111.81,33.12h0a20.77,20.77,0,0,1-.59,5.26h0a13.71,13.71,0,0,1-1.73,4h0a11.35,11.35,0,0,1-2.74,2.87h0a13.59,13.59,0,0,1-3.53,1.9h0a20.33,20.33,0,0,1-4.25,1h0a33.51,33.51,0,0,1-4.8.33H78.33V17.8H94.11a30.52,30.52,0,0,1,7,.76h0a15,15,0,0,1,5.62,2.51h0a11.78,11.78,0,0,1,3.72,4.7h0A17.81,17.81,0,0,1,111.81,33.12Zm-2.87,0h0a18.35,18.35,0,0,0-.49-4.41h0A11.22,11.22,0,0,0,107,25.38h0A8.58,8.58,0,0,0,104.82,23h0a13.11,13.11,0,0,0-3-1.57h0a17.29,17.29,0,0,0-3.59-.82h0a32.2,32.2,0,0,0-4.15-.26h-13V45.93h13a28.55,28.55,0,0,0,6-.59h0a11.84,11.84,0,0,0,4.67-2.06h0a9.81,9.81,0,0,0,3.07-3.92h0A15.66,15.66,0,0,0,108.94,33.12Zm41.94,10.52v3.24h0c-1.26.39-2.43.73-3.49,1h0a28.79,28.79,0,0,1-3.17.65h0c-1.05.18-2.1.31-3.17.4h0c-1.09.08-2.28.13-3.56.13h0A28.08,28.08,0,0,1,129.32,48h0a17.78,17.78,0,0,1-6.17-3.14h0a13.48,13.48,0,0,1-4-4.93h0a15.08,15.08,0,0,1-1.38-6.54h0a15.66,15.66,0,0,1,1.31-6.43h0a14.71,14.71,0,0,1,3.72-5h0a16.65,16.65,0,0,1,5.72-3.27h0a22,22,0,0,1,7.35-1.17h0a23.11,23.11,0,0,1,7.45,1.11h0a15.9,15.9,0,0,1,5.49,3.2h0a13.81,13.81,0,0,1,3.39,5h0a18.25,18.25,0,0,1,1.15,6.66h0v.69H120.7a13.49,13.49,0,0,0,1.4,5.16h0a11.41,11.41,0,0,0,3.37,3.92h0a16.24,16.24,0,0,0,5.35,2.48h0a29.09,29.09,0,0,0,7.45.85h0a25.43,25.43,0,0,0,3.66-.26h0a28.38,28.38,0,0,0,3.53-.65h0a21.4,21.4,0,0,0,3.1-1h0a12.44,12.44,0,0,0,2.32-1.08ZM120.7,31.75h30a13.77,13.77,0,0,0-1-4.47h0a10.45,10.45,0,0,0-2.68-3.76h0a12.91,12.91,0,0,0-4.51-2.61h0a20.13,20.13,0,0,0-6.53-.95h0a19,19,0,0,0-6.31.95h0A14.42,14.42,0,0,0,125,23.49h0a12.38,12.38,0,0,0-3,3.75h0a14.13,14.13,0,0,0-1.34,4.51ZM192.14,17.8,176.69,48.51h-4.18L157.19,17.8h3.13L174.7,46.58,189,17.8Zm32.8,2.55H211V48.51h-2.75V20.35h-14V17.8h30.71Zm35.64,28.16h-2.74v-3.4h0a31.59,31.59,0,0,1-3.66,1.6h0A35.06,35.06,0,0,1,249.86,48h0a44.5,44.5,0,0,1-4.67.82h0a39.28,39.28,0,0,1-4.67.29h0a25.87,25.87,0,0,1-5.39-.52h0a13.4,13.4,0,0,1-4-1.6h0a7.46,7.46,0,0,1-2.54-2.65h0a7.35,7.35,0,0,1-.89-3.66h0a6.48,6.48,0,0,1,1-3.63h0a8.88,8.88,0,0,1,2.94-2.74h0a19.8,19.8,0,0,1,4.64-2h0a47.71,47.71,0,0,1,6.07-1.37h0c2.23-.37,4.63-.69,7.22-1h0c2.62-.24,5.36-.44,8.24-.59h0V27.05h0a5.63,5.63,0,0,0-.56-2.55h0a5.66,5.66,0,0,0-1.5-1.89h0a8.43,8.43,0,0,0-2.26-1.38h0a20,20,0,0,0-2.77-.88h0a24.94,24.94,0,0,0-3.17-.46h0c-1.11-.1-2.23-.16-3.37-.16h0a33.58,33.58,0,0,0-4.08.23h0a29.41,29.41,0,0,0-3.46.62h0a29.85,29.85,0,0,0-3.11.92h0c-1,.32-2,.68-3,1.07h0V19.31h0q3.1-.82,6.63-1.44h0a43.55,43.55,0,0,1,7.48-.62h0a30.9,30.9,0,0,1,6.24.59h0A16.39,16.39,0,0,1,256,19.63h0a10,10,0,0,1,3.36,3.24h0a9.11,9.11,0,0,1,1.21,4.83h0Zm-2.74-6.34V31.85h0q-7.32.42-12.48,1.14h0a51.89,51.89,0,0,0-8.46,1.83h0a12.82,12.82,0,0,0-4.81,2.49h0a4.32,4.32,0,0,0-1.53,3.23h0a4.64,4.64,0,0,0,.75,2.61h0a5.91,5.91,0,0,0,2.16,1.93h0a12,12,0,0,0,3.39,1.14h0a23.31,23.31,0,0,0,4.54.4h0a29,29,0,0,0,3-.17h0c1.05-.11,2.09-.26,3.14-.45h0c1-.2,2.07-.44,3.07-.72h0c1-.29,2-.59,2.87-.92h0a21.75,21.75,0,0,0,2.45-1h0a12.83,12.83,0,0,0,1.87-1.15Zm37.6-23v3.2h0c-.57-.28-1.23-.58-2-.91h0a21.67,21.67,0,0,0-2.61-.85h0a31.43,31.43,0,0,0-3.27-.62h0a30.11,30.11,0,0,0-4.08-.26h0a35.75,35.75,0,0,0-4.8.29h0a14.56,14.56,0,0,0-3.6,1h0a5.86,5.86,0,0,0-2.22,1.67h0a3.78,3.78,0,0,0-.78,2.38h0a3,3,0,0,0,.75,2h0a6.6,6.6,0,0,0,2,1.57h0a20.29,20.29,0,0,0,2.91,1.21h0c1.11.37,2.28.7,3.53,1h0l3.82,1h0c1.33.32,2.61.67,3.85,1h0c1.24.4,2.42.82,3.53,1.28h0a13.94,13.94,0,0,1,2.91,1.66h0a7.18,7.18,0,0,1,2,2.13h0a5.37,5.37,0,0,1,.72,2.81h0a6.56,6.56,0,0,1-.66,3h0a7,7,0,0,1-1.73,2.19h0A9.9,9.9,0,0,1,293,47.5h0a19.57,19.57,0,0,1-3.17,1h0a29.08,29.08,0,0,1-3.46.52h0c-1.2.09-2.39.13-3.56.13h0a41.35,41.35,0,0,1-7.26-.59h0a39,39,0,0,1-6.17-1.57h0V43.51h0A19.72,19.72,0,0,0,275.8,46h0a36.52,36.52,0,0,0,7.12.68h0a34.72,34.72,0,0,0,4.87-.32h0a17.64,17.64,0,0,0,3.86-1h0a6.46,6.46,0,0,0,2.54-1.8h0a4,4,0,0,0,.92-2.68h0a3.47,3.47,0,0,0-.75-2.22h0a6.2,6.2,0,0,0-2-1.7h0a15.79,15.79,0,0,0-2.91-1.27h0c-1.11-.37-2.28-.72-3.49-1.05h0c-1.25-.33-2.53-.64-3.86-.95h0c-1.31-.3-2.58-.63-3.82-1h0a29.9,29.9,0,0,1-3.5-1.21h0a12.25,12.25,0,0,1-2.9-1.56h0a7.9,7.9,0,0,1-2-2.09h0a5.17,5.17,0,0,1-.72-2.75h0a6.2,6.2,0,0,1,.59-2.74h0a6.66,6.66,0,0,1,1.6-2.06h0a8.91,8.91,0,0,1,2.39-1.47h0a16.43,16.43,0,0,1,2.9-1h0a28.94,28.94,0,0,1,3.24-.49h0c1.11-.11,2.21-.16,3.3-.16h0a32.09,32.09,0,0,1,3.36.16h0c1.07.11,2.1.25,3.11.43h0c1,.17,1.95.37,2.9.58h0q1.41.33,2.85.72Zm42.89,29.37h-2.88A12.44,12.44,0,0,0,334.21,44h0a13,13,0,0,0-2.58-3.56h0A16.2,16.2,0,0,0,328,37.7h0a25.58,25.58,0,0,0-4.31-1.86h0A31,31,0,0,0,319,34.76h0a32.93,32.93,0,0,0-4.8-.36h-4.77V48.51h-2.78V17.8h2.78V32h4a26.2,26.2,0,0,0,4.77-.43h0a27.33,27.33,0,0,0,4.54-1.27h0a24.07,24.07,0,0,0,4-2.06h0A15.31,15.31,0,0,0,330,25.38h0a14.19,14.19,0,0,0,2.35-3.46h0a12.47,12.47,0,0,0,1.15-4.12h2.87a14.13,14.13,0,0,1-1.08,4.41h0a14.46,14.46,0,0,1-2.12,3.56h0a15.74,15.74,0,0,1-2.78,2.81h0a22.52,22.52,0,0,1-3.13,2h0a20.5,20.5,0,0,1-3.11,1.44h0a21.37,21.37,0,0,1-2.74.88h0a28,28,0,0,1,3.33.72h0A25.68,25.68,0,0,1,328.36,35h0a22.66,22.66,0,0,1,3.5,2h0a17.43,17.43,0,0,1,3.07,2.88h0a16,16,0,0,1,2.25,3.79h0a15.3,15.3,0,0,1,1.15,4.8Z"/></g></g></svg>